<svg xmlns="http://www.w3.org/2000/svg" height="96" viewBox="0 0 171.23682 138.79443">
  <defs>
    <style>
      .cls-1 { fill: #14b7a5; }
    </style>
  </defs>
  <title>Asset 8</title>
  <g id="Layer_2" data-name="Layer 2">
    <g id="Layer_1-2" data-name="Layer 1">
      <path class="cls-1" d="M171.23682,25.50342l-43.19922,112.25a1.82506,1.82506,0,0,1-3.2959,0l-39.21-102.88086L46.32227,137.75342a1.82545,1.82545,0,0,1-3.29639,0L0,25.50342H27.06494L44.5874,73.21436,72.17285,1.0415a1.51706,1.51706,0,0,1,1.56153-1.041H97.32959A1.906,1.906,0,0,1,99.064,1.0415l27.41211,72.17286,17.69629-47.71094Z" />
      <path class="cls-1" d="M140.0083,138.79443H116.06689a1.66716,1.66716,0,0,1-1.56152-1.041L87.09326,60.37549,60.02832,137.75342a1.74077,1.74077,0,0,1-1.73486,1.041H34.5249c-1.561,0-2.25537-1.041-1.73486-2.082L85.3584,1.0415a1.96566,1.96566,0,0,1,3.46973,0l52.74169,135.6709C142.09033,137.75342,141.22314,138.79443,140.0083,138.79443Z" />
    </g>
  </g>
</svg>
