<svg id="Layer_1" data-name="Layer 1" xmlns="http://www.w3.org/2000/svg" viewBox="0 0 687.5708 687.55713"><defs><style>.cls-1{font-size:108px;fill:#231f20;font-family:Tomorrow-Bold, Tomorrow;font-weight:700;}</style></defs><title>Untitled-2</title><text class="cls-1" transform="translate(90.7915 346.20752) rotate(-81.75775)">S</text><text class="cls-1" transform="translate(102.94141 273.36816) rotate(-68.96402)">t</text><text class="cls-1" transform="translate(114.6084 237.37354) rotate(-56.79695)">u</text><text class="cls-1" transform="translate(151.26221 180.18799) rotate(-41.35941)">d</text><text class="cls-1" transform="translate(202.52832 134.7666) rotate(-26.45764)">e</text><text class="cls-1" transform="matrix(0.98055, -0.19625, 0.19625, 0.98055, 258.12842, 105.91406)">n</text><text class="cls-1" transform="translate(327.19482 93.4751) rotate(0.92887)">t</text><text class="cls-1" transform="matrix(0.99002, 0.14093, -0.14093, 0.99002, 366.18213, 94.41357)"> </text><text class="cls-1" transform="matrix(0.96807, 0.25068, -0.25068, 0.96807, 390.48682, 97.56201)">.</text><text class="cls-1" transform="translate(420.76025 105.47852) rotate(20.95345)"> </text><text class="cls-1" transform="matrix(0.85869, 0.51249, -0.51249, 0.85869, 443.48584, 112.09668)">T</text><text class="cls-1" transform="matrix(0.73523, 0.67781, -0.67781, 0.73523, 488.53955, 137.19629)">e</text><text class="cls-1" transform="matrix(0.54792, 0.83653, -0.83653, 0.54792, 535.02197, 179.42188)">c</text><text class="cls-1" transform="translate(569.59619 230.32959) rotate(71.61426)">h</text><text class="cls-1" transform="translate(591.75537 294.78564) rotate(87.29613)">n</text><text class="cls-1" transform="translate(593.47412 365.12549) rotate(98.73244)">i</text><text class="cls-1" transform="translate(590.53271 396.07178) rotate(109.47011)">c</text><text class="cls-1" transform="matrix(-0.54705, 0.8371, -0.8371, -0.54705, 571.88037, 451.79541)">a</text><text class="cls-1" transform="translate(535.41943 505.24268) rotate(134.03961)">l</text><text class="cls-1" transform="translate(512.98486 528.29834) rotate(140.49001)"> </text><text class="cls-1" transform="translate(496.47314 545.12646) rotate(151.12987)">E</text><text class="cls-1" transform="translate(436.59033 578.94482) rotate(166.93981)">n</text><text class="cls-1" transform="translate(369.01318 595.08936) rotate(-177.55138)">g</text><text class="cls-1" transform="translate(300.60449 590.65967) rotate(-166.20793)">i</text><text class="cls-1" transform="translate(270.07715 585.60791) rotate(-154.58383)">n</text><text class="cls-1" transform="matrix(-0.76102, -0.64873, 0.64873, -0.76102, 207.20996, 555.86768)">e</text><text class="cls-1" transform="matrix(-0.57831, -0.81582, 0.81582, -0.57831, 159.08447, 515.54932)">e</text><text class="cls-1" transform="matrix(-0.3899, -0.92086, 0.92086, -0.3899, 123.00635, 463.70068)">r</text><text class="cls-1" transform="matrix(-0.25624, -0.96661, 0.96661, -0.25624, 105.51807, 420.84912)"> </text><text class="cls-1" transform="translate(98.94434 397.23877) rotate(-98.42846)">.</text><text class="cls-1" transform="translate(94.43311 366.26514) rotate(-92.07473)"> </text></svg>