<svg id="Layer_1" data-name="Layer 1" xmlns="http://www.w3.org/2000/svg" viewBox="0 0 813.63086 221.57715"><defs><style>.cls-1{font-size:173.49046px;font-family:Blanka-Regular, Blanka;}.cls-1,.cls-2{fill:#231f20;}</style></defs><title>Winz</title><text class="cls-1" transform="translate(0 221.40234)">WINZART</text><path class="cls-2" d="M626.05273,286.05273l-22.917-14.26464,7.64649-12.28321,5.27734-1.20117,5.37891,3.34863,1.03808,2.63086,4.31934-.97949,6.40527,3.98731,1.23242,5.29785Zm-11.54687-11.11425,5.32324-8.55078-.96-2.40918-3.60742-2.24512-2.78613.59473-5.05957,8.19726Zm10.78906,6.71679,5.82617-9.35937-.6455-2.77442-4.69532-2.92285-2.98828.64258-5.76758,9.26465Z" transform="translate(0 -210.8584)"/><path class="cls-2" d="M646.36426,259.75586l-7.05664-8.18262-17.72949-6.08691,2.88476-2.48828,13.28027,4.79883.55372-.47852L635.5293,233.4541l2.85742-2.46484,3.44531,18.4082,7.05664,8.18164Z" transform="translate(0 -210.8584)"/><path class="cls-2" d="M671.8916,243.57715l-7.30176-25.98731,17.13672-4.81543.832,2.96192-13.92773,3.91308,2.21973,7.89844,12.44629-3.49805.82226,2.92774-12.44629,3.49707,2.5957,9.23828,13.92774-3.91309.833,2.96192Z" transform="translate(0 -210.8584)"/><path class="cls-2" d="M696.87207,237.81934l1.35059-26.96094,14.63281.7334,5.3125,5.95117-.78223,15.61914-5.88086,5.38965Zm3.47754-2.79688,9.80371.49121,3.96-3.65234.66895-13.35156-3.5752-4.03028-9.80371-.49023Z" transform="translate(0 -210.8584)"/><path class="cls-2" d="M724.61426,240.94727l.9707-2.91895,3.12891,1.04L735.29,219.293l-3.12793-1.04.9707-2.91992,9.41895,3.13281-.97168,2.91895-3.12695-1.04L731.876,240.12012l3.12793,1.04-.97071,2.91992Z" transform="translate(0 -210.8584)"/><path class="cls-2" d="M754.38086,255.24414l13.98828-24.01953,2.52832,2.44238-12.72266,20.8125.58008.56055,20.15039-13.63574,2.18653,2.1123L768.1582,264.125l.58008.55957,20.36035-13.43164,2.5293,2.44336-23.52344,14.80664-3.7666-3.63867,10.73535-17.333-16.92578,11.35156Z" transform="translate(0 -210.8584)"/><path class="cls-2" d="M774.87207,278.67578l2.71777-1.44336,1.54493,2.91211,18.4082-9.77148-1.5459-2.91114,2.7168-1.44336,4.65429,8.76758-2.71679,1.44239-1.5459-2.91114-18.4082,9.77149,1.54589,2.91211-2.71777,1.4414Z" transform="translate(0 -210.8584)"/><path class="cls-2" d="M783.085,295.18945l26.40332-5.6123.94434,4.44336-18.74024,16.30176,21.24512-4.51563.69336,3.25977-26.4043,5.6123-.82226-3.86816,18.39062-16.00489-.167-.78711-20.85059,4.43067Z" transform="translate(0 -210.8584)"/><path class="cls-2" d="M787.78027,321.16992l25.69727,12.3086-.62207,5.126L784.959,344.4043l.41993-3.4541,7.25879-1.44239,1.42578-11.74414-6.707-3.10254Zm9.07325,7.92871-1.19239,9.81641,14.32813-2.835.10156-.83692Z" transform="translate(0 -210.8584)"/><path class="cls-2" d="M782.749,350.57617l24.35059,11.64942L800.72949,375.541l-5.11328,1.77734-7.76465-3.71582-1.82519-5.0957.04785-.09864-11.75-.2207,1.59668-3.33789,11.71777.28809,3.31934-6.93848-9.64746-4.61719Zm10.88575,8.90235-4.28418,8.9541.96386,2.65429,5.71582,2.73438,2.6709-.916,4.28418-8.95214Z" transform="translate(0 -210.8584)"/><path class="cls-2" d="M769.63184,374.7373l19.18847,18.98536-3.19433,3.22851-23.91407-6.71,15.43848,15.27539-2.34375,2.36914-19.18848-18.98633,2.78223-2.81152,23.47363,6.584.56641-.57227-15.15234-14.99414Z" transform="translate(0 -210.8584)"/><path class="cls-2" d="M745.34766,395.54l5.14257,1.76855,8.47071,17.34375-1.76856,5.14356-11.45312,5.59375-5.14356-1.76758L732.126,406.27734l1.76855-5.14355Zm-.04786,3.32519-8.75488,4.2754-.92578,2.69433,7.47363,15.30274,2.69434.92773,8.75488-4.27637.92578-2.69336L747.99414,399.792Z" transform="translate(0 -210.8584)"/></svg>